<?xml version="1.0" encoding="UTF-8"?>
<svg width="18px" height="17px" viewBox="0 0 18 17" version="1.1" xmlns="http://www.w3.org/2000/svg" xmlns:xlink="http://www.w3.org/1999/xlink">
    <title>Group 2</title>
    <g id="Dash-v2" stroke="none" stroke-width="1" fill="none" fill-rule="evenodd">
        <g id="Artboard-Copy-7" transform="translate(-449.000000, -473.000000)" stroke="#101010">
            <g id="Group-2" transform="translate(450.000000, 473.361253)">
                <path d="M11.1984881,0.5013548 L11.0484018,10.2374394 L9.38728338,12.071699 L7.94837015,10.6327858 L8.43097815,0.970444299 L11.1984881,0.5013548 Z" id="Rectangle" transform="translate(9.772903, 6.389403) rotate(45.000000) translate(-9.772903, -6.389403) "></path>
                <path d="M0,9.79259292 L0,4.63874676 C-6.76353751e-17,4.08646201 0.44771525,3.63874676 1,3.63874676 L11,3.63874676 C11.5522847,3.63874676 12,4.08646201 12,4.63874676 L12,14.6387468 C12,15.1910315 11.5522847,15.6387468 11,15.6387468 L5.84615385,15.6387468 L5.84615385,15.6387468" id="Rectangle" stroke-linecap="round" transform="translate(6.000000, 9.638747) scale(-1, -1) translate(-6.000000, -9.638747) "></path>
            </g>
        </g>
    </g>
</svg>